<?xml version="1.0" standalone="no"?>
<!DOCTYPE svg PUBLIC "-//W3C//DTD SVG 20010904//EN"
 "http://www.w3.org/TR/2001/REC-SVG-20010904/DTD/svg10.dtd">
<svg version="1.0" xmlns="http://www.w3.org/2000/svg"
 width="640.000000pt" height="640.000000pt" viewBox="0 0 640.000000 640.000000"
 preserveAspectRatio="xMidYMid meet">
<metadata>
Created by potrace 1.11, written by Peter Selinger 2001-2013
</metadata>
<g transform="translate(0.000000,640.000000) scale(0.100000,-0.100000)"
fill="#000000" stroke="none">
<path d="M1306 6155 c-115 -40 -158 -176 -87 -278 95 -139 316 -77 326 92 9
132 -116 228 -239 186z"/>
<path d="M2075 6163 c-33 -7 -79 -27 -99 -43 -31 -26 -64 -106 -59 -147 18
-171 226 -232 329 -97 25 33 29 46 29 104 0 56 -4 73 -27 106 -39 56 -113 89
-173 77z"/>
<path d="M2815 6165 c-5 -2 -22 -6 -38 -9 -15 -4 -45 -22 -66 -41 -128 -116
-33 -329 140 -313 178 18 225 266 65 342 -34 16 -84 26 -101 21z"/>
<path d="M3515 6157 c-145 -47 -173 -241 -48 -327 30 -20 49 -25 102 -25 57 0
71 4 103 28 110 85 99 249 -22 312 -37 19 -97 25 -135 12z"/>
<path d="M4242 6156 c-101 -35 -151 -160 -102 -255 84 -167 340 -109 343 77 1
127 -122 219 -241 178z"/>
<path d="M4985 6157 c-16 -5 -45 -20 -63 -34 -125 -93 -67 -298 90 -319 160
-22 269 166 167 289 -51 62 -126 86 -194 64z"/>
<path d="M655 6053 c-58 -15 -95 -67 -95 -133 0 -86 100 -145 182 -106 86 41
94 167 15 219 -27 17 -75 27 -102 20z"/>
<path d="M5662 6044 c-43 -19 -72 -68 -72 -122 0 -34 6 -49 34 -80 32 -34 39
-37 90 -37 47 0 59 4 86 30 103 99 -6 265 -138 209z"/>
<path d="M947 5519 c-111 -58 -125 -226 -25 -302 114 -87 275 -22 292 120 19
144 -137 251 -267 182z"/>
<path d="M1654 5525 c-104 -47 -136 -196 -62 -281 41 -47 79 -65 137 -66 180
-1 253 230 105 332 -44 29 -133 37 -180 15z"/>
<path d="M3975 5530 c-66 -27 -95 -121 -56 -183 63 -103 224 -64 233 55 6 97
-88 165 -177 128z"/>
<path d="M4595 5526 c-176 -82 -118 -349 75 -348 174 2 245 214 108 325 -43
35 -134 46 -183 23z"/>
<path d="M5324 5521 c-168 -76 -116 -332 71 -345 65 -5 141 40 170 101 75 158
-81 317 -241 244z"/>
<path d="M285 5420 c-52 -21 -86 -94 -71 -153 8 -34 53 -75 92 -86 79 -22 159
40 157 121 -1 51 -15 77 -57 106 -33 22 -84 28 -121 12z"/>
<path d="M579 4910 c-44 -13 -79 -41 -106 -87 -22 -39 -25 -52 -20 -104 6 -72
37 -117 100 -148 181 -88 343 139 208 293 -37 42 -121 63 -182 46z"/>
<path d="M1282 4894 c-161 -80 -110 -330 69 -340 70 -3 102 10 148 62 133 152
-36 368 -217 278z"/>
<path d="M286 4289 c-53 -14 -96 -72 -96 -127 0 -35 37 -92 70 -109 55 -28
143 -4 169 45 54 101 -35 219 -143 191z"/>
<path d="M1673 4283 c-51 -18 -110 -82 -119 -130 -22 -117 61 -223 174 -223
107 0 186 78 185 182 -2 123 -124 210 -240 171z"/>
<path d="M914 4271 c-38 -17 -82 -70 -92 -111 -19 -73 13 -158 75 -200 30 -21
49 -25 104 -25 60 0 71 3 106 31 52 42 68 77 68 151 0 53 -4 66 -31 100 -57
72 -145 93 -230 54z"/>
<path d="M2382 4179 c-76 -16 -119 -100 -88 -174 27 -63 113 -94 176 -62 33
17 70 74 70 109 0 80 -79 144 -158 127z"/>
<path d="M624 3651 c-45 -27 -64 -59 -64 -106 0 -109 111 -168 199 -105 42 31
53 53 53 106 0 42 -23 79 -65 104 -40 25 -83 25 -123 1z"/>
<path d="M1315 3661 c-48 -16 -76 -37 -102 -74 -23 -33 -27 -49 -27 -103 0
-56 4 -69 31 -102 38 -47 78 -71 130 -76 105 -10 193 67 198 174 7 120 -119
219 -230 181z"/>
<path d="M2020 3648 c-94 -48 -129 -153 -81 -245 32 -64 88 -97 162 -97 47 1
66 6 97 28 51 35 82 92 82 149 0 82 -38 141 -112 172 -52 21 -96 19 -148 -7z"/>
<path d="M2765 3656 c-177 -77 -133 -336 59 -351 96 -7 178 63 189 161 16 134
-127 243 -248 190z"/>
<path d="M3495 3652 c-187 -89 -115 -366 90 -346 124 12 200 146 145 259 -43
88 -149 128 -235 87z"/>
<path d="M4193 3546 c-63 -28 -91 -113 -59 -175 43 -82 170 -87 220 -8 34 53
17 143 -33 174 -33 21 -93 24 -128 9z"/>
<path d="M1035 3038 c-42 -12 -63 -30 -79 -69 -47 -118 74 -225 181 -159 125
76 39 269 -102 228z"/>
<path d="M1688 3040 c-109 -31 -164 -140 -124 -245 71 -186 352 -128 348 71
-2 115 -117 204 -224 174z"/>
<path d="M2430 3043 c-129 -38 -182 -160 -120 -271 65 -116 234 -121 308 -9
22 33 27 52 27 103 0 54 -4 67 -31 101 -45 56 -130 91 -184 76z"/>
<path d="M3170 3043 c-57 -16 -93 -41 -121 -82 -27 -41 -30 -52 -27 -107 3
-48 10 -69 31 -98 72 -93 204 -100 284 -14 77 82 50 228 -52 280 -32 17 -91
27 -115 21z"/>
<path d="M3890 3037 c-138 -28 -183 -209 -78 -310 105 -101 296 -25 303 120 6
130 -96 217 -225 190z"/>
<path d="M4627 3039 c-53 -12 -84 -36 -113 -85 -83 -141 49 -312 206 -265 85
25 135 99 128 187 -10 114 -111 188 -221 163z"/>
<path d="M5310 2931 c-31 -12 -60 -38 -75 -67 -58 -112 72 -231 180 -164 78
48 79 165 2 214 -25 16 -85 26 -107 17z"/>
<path d="M2823 2400 c-88 -53 -79 -177 17 -224 71 -35 171 24 173 101 0 56 -3
70 -25 95 -46 52 -109 63 -165 28z"/>
<path d="M3551 2397 c-97 -66 -62 -213 55 -230 43 -7 105 23 127 61 66 115
-72 244 -182 169z"/>
<path d="M4245 2413 c-35 -9 -85 -53 -106 -95 -28 -54 -23 -132 12 -182 76
-112 249 -104 309 15 26 50 30 94 13 144 -32 93 -127 142 -228 118z"/>
<path d="M4965 2405 c-48 -22 -73 -47 -94 -94 -64 -145 74 -295 224 -244 145
50 166 248 34 326 -46 28 -120 33 -164 12z"/>
<path d="M5665 2301 c-50 -22 -84 -86 -77 -143 5 -37 63 -94 104 -100 34 -5
82 6 107 26 8 6 22 28 31 49 35 78 -17 166 -101 173 -24 2 -53 0 -64 -5z"/>
<path d="M3928 1779 c-89 -45 -85 -180 7 -223 43 -21 73 -20 114 2 45 24 71
72 66 123 -10 92 -103 141 -187 98z"/>
<path d="M4606 1785 c-47 -16 -73 -40 -98 -88 -51 -101 -1 -221 106 -257 81
-26 182 17 217 93 69 152 -68 306 -225 252z"/>
<path d="M5355 1791 c-39 -12 -81 -43 -105 -79 -37 -53 -35 -144 2 -198 40
-58 81 -79 153 -78 47 0 68 5 97 24 115 77 107 253 -16 317 -31 16 -100 24
-131 14z"/>
<path d="M6022 1670 c-90 -55 -86 -182 6 -226 99 -47 206 48 174 155 -23 74
-115 110 -180 71z"/>
<path d="M555 1156 c-116 -52 -141 -211 -48 -298 86 -82 232 -57 283 47 45 94
18 190 -70 244 -41 24 -118 28 -165 7z"/>
<path d="M1285 1153 c-72 -37 -106 -98 -100 -176 11 -172 237 -230 332 -85 57
86 25 211 -67 258 -47 24 -123 26 -165 3z"/>
<path d="M4288 1152 c-80 -49 -71 -186 13 -222 89 -38 183 22 181 116 -1 74
-53 124 -129 124 -21 0 -50 -8 -65 -18z"/>
<path d="M4970 1163 c-36 -15 -80 -57 -98 -96 -41 -85 -9 -184 75 -233 39 -23
52 -26 104 -21 227 20 218 351 -10 355 -31 0 -63 -2 -71 -5z"/>
<path d="M5695 1156 c-16 -8 -42 -26 -57 -42 -123 -132 1 -343 176 -299 160
41 187 264 40 335 -46 23 -115 25 -159 6z"/>
<path d="M263 535 c-59 -25 -87 -97 -63 -161 11 -28 57 -73 75 -75 6 0 19 -2
30 -4 56 -11 129 45 139 105 8 51 -23 112 -67 133 -42 20 -71 21 -114 2z"/>
<path d="M937 536 c-97 -36 -141 -125 -111 -227 46 -154 264 -168 335 -22 70
145 -73 304 -224 249z"/>
<path d="M1670 539 c-79 -32 -127 -110 -118 -193 17 -151 200 -215 310 -109
64 61 67 184 6 251 -48 52 -138 75 -198 51z"/>
<path d="M4594 531 c-48 -22 -94 -77 -103 -124 -16 -74 26 -170 87 -201 125
-63 272 21 272 157 0 80 -41 142 -113 172 -48 20 -93 19 -143 -4z"/>
<path d="M5344 540 c-63 -19 -124 -102 -124 -167 0 -79 52 -155 122 -179 41
-14 109 -9 146 10 107 56 129 200 44 290 -44 46 -123 65 -188 46z"/>
<path d="M6040 542 c-80 -38 -109 -127 -62 -191 27 -38 86 -64 127 -57 141 27
132 237 -11 252 -21 2 -46 0 -54 -4z"/>
<path d="M2351 423 c-38 -19 -74 -87 -67 -125 13 -72 58 -112 125 -112 56 0
93 23 116 71 30 63 1 143 -62 169 -42 18 -70 17 -112 -3z"/>
<path d="M3136 421 c-100 -66 -72 -216 44 -236 129 -22 202 159 93 230 -38 25
-103 28 -137 6z"/>
<path d="M3931 422 c-112 -60 -78 -227 48 -237 79 -6 143 58 135 137 -4 48
-27 82 -69 102 -43 21 -73 20 -114 -2z"/>
</g>
</svg>
